<?xml version="1.0" standalone="no"?>
<!DOCTYPE svg PUBLIC "-//W3C//DTD SVG 20010904//EN"
 "http://www.w3.org/TR/2001/REC-SVG-20010904/DTD/svg10.dtd">
<svg version="1.0" xmlns="http://www.w3.org/2000/svg"
 width="100.000000pt" height="100.000000pt" viewBox="0 0 100.000000 100.000000"
 preserveAspectRatio="xMidYMid meet">

<g transform="translate(0.000000,100.000000) scale(0.100000,-0.100000)"
fill="#000000" stroke="none">
<path d="M605 868 c55 -5 102 -12 105 -15 11 -11 4 -213 -8 -225 -10 -10 -64
-13 -211 -13 -175 0 -201 2 -218 17 -25 23 -29 22 -64 -3 -18 -13 -29 -29 -29
-45 0 -27 -14 -31 -36 -10 -24 24 -52 8 -59 -35 -12 -73 23 -116 71 -84 l24
15 0 -115 c0 -77 5 -127 14 -149 23 -55 53 -60 330 -53 133 3 248 8 257 12 29
11 39 54 39 163 l0 108 34 -4 c26 -3 37 1 50 19 20 29 20 42 -1 86 -14 31 -20
34 -49 31 -30 -4 -35 -1 -44 28 -7 21 -21 36 -40 44 -28 12 -30 16 -31 69 0
80 -14 152 -30 162 -8 5 -57 8 -109 7 l-95 -1 100 -9z m-358 -268 c17 -13 41
-20 68 -20 29 0 47 -6 60 -20 24 -27 86 -42 133 -34 47 8 112 34 112 44 0 4
27 10 60 13 34 3 67 10 75 17 22 19 35 2 35 -45 0 -26 6 -50 16 -59 13 -14 13
-16 1 -16 -23 0 -27 -23 -27 -155 l0 -123 -27 -6 c-16 -3 -132 -8 -259 -12
l-232 -7 -26 26 c-22 22 -26 35 -26 80 0 30 -3 88 -6 130 -7 82 -18 94 -55 61
-13 -12 -22 -13 -36 -5 -16 9 -16 10 5 11 33 0 83 57 76 87 -7 27 1 53 17 53
6 0 22 -9 36 -20z"/>
<path d="M264 411 c-2 -2 -4 -32 -4 -66 0 -96 -2 -95 237 -95 160 0 203 3 212
14 7 9 11 41 9 83 l-3 68 -223 0 c-123 0 -225 -2 -228 -4z"/>
</g>
</svg>
